<?xml version="1.0" encoding="UTF-8"?>
<svg id="Layer_1" xmlns="http://www.w3.org/2000/svg" version="1.1" viewBox="0 0 600 200">
  <!-- Generator: Adobe Illustrator 29.6.1, SVG Export Plug-In . SVG Version: 2.1.1 Build 9)  -->
  <defs>
    <style>
      .st0 {
        stroke: #fff;
        stroke-miterlimit: 10;
        stroke-width: .4px;
      }

      .st0, .st1 {
        fill: #fff;
      }

      .st2 {
        fill: #b87333;
      }
    </style>
  </defs>
  <rect class="st2" x="9.9" y="7.88" width="582.62" height="183.95"/>
  <g>
    <polyline class="st1" points="84.85 83.78 58.83 44.02 58.83 125.32 46.74 125.32 46.74 23.1 58.83 23.1 91.73 73.67"/>
    <polyline class="st1" points="91.32 73.08 84.25 82.92 93.88 97.62 129.2 43.74 129.2 125.2 141.13 125.2 141.13 22.98 129.2 22.98 93.88 77.02 90.97 72.54"/>
  </g>
  <path class="st1" d="M184.9,115.89s61.87-29.87,61.87-59.42c0-12.89-11.57-22.95-27.83-22.95-13.08,0-24.31,7.55-28.34,15.25l-9.05-7.07c2.28-3.45,5.18-6.55,8.58-9.19,7.61-5.91,17.73-9.52,28.97-9.52,23.31,0,40.41,14.62,40.41,33.64,0,32.07-51.64,58.16-51.64,58.16h52.31v10.53h-75.29v-9.43Z"/>
  <g>
    <path class="st0" d="M47.07,156.15h2.74v17.04h10.15v2.41h-12.89v-19.45Z"/>
    <path class="st0" d="M117.94,156.15h3.14l8.35,19.45h-3.02l-1.71-3.95h-10.52l-1.68,3.95h-2.93l8.35-19.45ZM123.71,169.27l-4.24-9.89-4.24,9.89h8.47Z"/>
    <path class="st0" d="M179.55,156.15h7.99c3.11,0,5.58,2.44,5.58,5.22,0,1.51-.79,2.84-1.98,3.71,1.89.9,3.23,2.74,3.23,4.86,0,3.11-2.65,5.67-6.01,5.67h-8.81v-19.45ZM187.2,164.33c1.71,0,3.14-1.3,3.14-2.9s-1.43-2.87-3.14-2.87h-4.91v5.76h4.91ZM188.09,173.19c1.95,0,3.51-1.48,3.51-3.26s-1.55-3.29-3.45-3.29h-5.85v6.55h5.79Z"/>
    <path class="st0" d="M244.21,172.71l1.83-1.75c1.34,1.45,3.87,2.41,6.01,2.41,2.47,0,5.36-1.06,5.36-3.17,0-4.49-12.65-2.47-12.65-9.05,0-3.11,3.32-5.19,7.56-5.19,2.87,0,5.4.84,7.22,2.35l-1.8,1.78c-1.4-1.14-3.41-1.72-5.43-1.72-2.44,0-4.79.88-4.79,2.78,0,4.04,12.65,2.32,12.65,8.87,0,4.04-4.24,5.76-8.14,5.76-2.99,0-6.1-1.33-7.83-3.08Z"/>
  </g>
  <g>
    <path class="st1" d="M300,7.65v184.23l293.35.94-.75-107.01c-8.73-.45-16.67,6.99-17.99,17.6-.59-3.01-1.05-5.31-1.7-8.64-.64,2.5-1.05,4.1-1.52,5.9-1.97-4.36-3.91-8.67-6.39-14.15-2.01,1.37-4.57,3.1-7.63,5.18,0-.03-.12,1.54-.34,4.35-1.54-1.82-2.62-3.11-3.56-4.22-.06.61-.2,1.96-.37,3.71-1.26-.75-2.39-1.42-3.63-2.15-.45,1.17-1.31,3.43-2.69,7.03-.46-3.17-.72-4.97-.93-6.37-.63,2.1-1.36,4.55-2.09,7-.35-.05-.69-.11-1.04-.16-.35-2.11-.71-4.22-1.22-7.28-.15,3.25-.25,5.55-.42,9.35-.52-1.92-.67-2.47-1.05-3.89-.25,2.05-.41,3.37-.62,5.17-.52-1.62-.88-2.7-1.65-5.1-.35,3.11-.55,4.9-.75,6.68-.13-.03-.25-.06-.38-.09-.11-2.87-.21-5.73-.32-8.6-.1-.01-.2-.03-.3-.04-.2,2.38-.39,4.75-.59,7.13-.22.06-.43.13-.65.19-.41-1.42-.81-2.83-1.53-5.34,0,5.11,0,9.06,0,13.01-.23,0-.45.02-.68.02,0-3.92,0-7.84,0-11.76-.27,0-.55-.01-.82-.02,0,5,0,9.99,0,14.99-.23.01-.45.03-.68.04-.12-1.16-.23-2.32-.4-3.98-.53,1.52-.93,2.66-1.32,3.8-.26-.04-.52-.07-.78-.1-.12-3.12-.24-6.23-.37-9.35-.17,0-.34,0-.52,0,0,6.17,0,12.34,0,18.51-.21,0-.42,0-.63,0-.15-4.06-.3-8.13-.44-12.19-.16,0-.32,0-.48,0,0,4.3,0,8.61,0,12.91-.22.02-.43.04-.65.06-.48-5.28-.97-10.57-1.45-15.85-.11-.01-.22-.02-.32-.03v18.22c-.28,0-.56,0-.85,0,0-6.19,0-12.39,0-18.58-.28,0-.56,0-.84,0,0,6.56,0,13.11,0,19.67-.16,0-.33,0-.49,0-.36-5-.72-9.99-1.09-14.99-.23,0-.46,0-.69,0,0,8.22,0,16.45,0,24.67-.3,0-.61,0-.91,0,0-9.38,0-18.77,0-28.15-.26,0-.51,0-.77,0,0,7.55,0,15.1,0,22.64-.26,0-.51.02-.77.03v-18.28c-.3,0-.61,0-.91,0,0,5.97,0,11.94,0,17.91-.41.03-.82.06-1.23.09v-15.91c-.37,0-.74,0-1.11,0,0,8.63,0,17.27,0,25.9-.26,0-.52.01-.78.02v-24.81c-.29,0-.58,0-.87,0,0,9.4,0,18.8,0,28.19h-.78c0-5.74,0-11.49,0-17.23-.26,0-.52,0-.77-.01,0,6.06,0,12.13,0,18.19-.4,0-.79,0-1.19,0,0-9.98,0-19.96,0-29.94-.4,0-.8,0-1.19-.02,0,11.46,0,22.92,0,34.38-.26,0-.53,0-.79,0,0-10.01,0-20.02,0-30.04-.26,0-.52,0-.78-.01,0,9.99,0,19.99,0,29.98-.28,0-.56,0-.84.01,0-8.66,0-17.32,0-25.97-.29,0-.57,0-.86,0,0,10.84,0,21.69,0,32.53-.26,0-.52,0-.78,0,0-8.27,0-16.54,0-24.81-.15,0-.3,0-.45-.01-.47,8.27-.94,16.54-1.42,24.81-.16,0-.33,0-.49,0,0-13.6,0-27.19,0-40.79-.26,0-.52,0-.78,0,0,9.28,0,18.55,0,27.83-.28,0-.56,0-.84,0,0-9.78,0-19.56,0-29.33-.29,0-.58,0-.86,0,0,8.38,0,16.76,0,25.15-.25,0-.51,0-.76,0,0-7.18,0-14.36,0-21.54-.25,0-.51,0-.76-.01,0,9.65,0,19.3,0,28.95-.29,0-.58,0-.87,0,0-9.73,0-19.47,0-29.2-.23,0-.46,0-.7,0v16.19c-.22.06-.43.12-.65.18-.18-.87-.35-1.73-.72-3.58-.29,2.45-.48,4.04-.67,5.62-.33.01-.65.02-.98.04,0-8.32,0-16.64,0-24.97-.36,0-.72,0-1.08,0,0,8.99,0,17.99,0,26.98-.26,0-.52,0-.78.02,0-7.56,0-15.13,0-22.69-.29,0-.58,0-.87,0,0,9.07,0,18.14,0,27.21-.26,0-.52,0-.78,0,0-8.63,0-17.25,0-25.88-.26,0-.52,0-.78,0,0,12.23,0,24.46,0,36.69-.27,0-.54,0-.81,0,0-12.6,0-25.19,0-37.79-.27,0-.53,0-.8,0,0,10.45,0,20.89,0,31.34-.26,0-.52,0-.79,0,0-9.71,0-19.42,0-29.13-.25,0-.5-.01-.75-.02,0,5.71,0,11.43,0,17.14-.27,0-.53,0-.8,0,0-6.5,0-13,0-19.49-.18,0-.35-.02-.53-.03-.16,1.13-.31,2.25-.47,3.38-1.33-9.77,1.71-21.69-8.43-26.63-.59.43-1.69,1.23-3.01,2.19-.3-1.23-.56-2.31-1.14-4.72-.54,6.1-.95,10.81-1.36,15.53-.29.02-.58.05-.87.07-.3-4.78-.57-9.55-.89-14.33-.32-4.85-1.96-6.47-5.49-6.01-2.52.33-5.09.35-7.62.17-5.32-.38-7.25,1.5-8.07,8.26-.28,2.31-.41,4.68-.88,6.92-.45,2.16-1.25,4.19-2.03,6.75-.31-5.38-.37-10.47-.99-15.43-.24-1.96-1.42-4.28-2.68-5.3-2.16-1.75-4.6-.42-5.3,2.57-1.22,5.19-1.74,10.68-2.53,16.06-.14.98-.12,2-1.1,3.16-.58-4.47-1.16-8.93-1.75-13.4l-.41-.06c-.59,13.41-1.17,26.82-1.76,40.23-.09,0-.17.02-.26.03-.37-5.72-.73-11.44-1.1-17.16-.23,0-.46.01-.7.02,0,10.09,0,20.18,0,30.27-.44.08-.87.17-1.31.25-.86-6.26-1.72-12.52-2.61-18.97-.14,3.8-.27,7.47-.41,11.15-.14,0-.29.01-.43.02-.13-2.96-.25-5.91-.38-8.87-.11,0-.21-.02-.32-.03-.19,2.62-.38,5.25-.57,7.87-.19,0-.37-.02-.56-.03,0-5.75,0-11.49,0-17.24-.25,0-.49,0-.74,0,0,10.43,0,20.86,0,31.29-.28,0-.56,0-.85,0,0-7.62,0-15.24,0-22.85-.25,0-.51,0-.76,0,0,11.16,0,22.31,0,33.47-.27,0-.53,0-.8.01,0-10.44,0-20.88,0-31.33-.26,0-.53,0-.79,0,0,9.35,0,18.71,0,28.06-.25,0-.51.02-.76.02,0-5.75,0-11.5,0-17.25l-.81-.05c-.4,5.42-.81,10.85-1.21,16.27-.14,0-.28,0-.43,0,0-5.07,0-10.13,0-15.2-.2,0-.4,0-.59,0-.14,4.4-.29,8.8-.43,13.2-.2,0-.39,0-.59,0,0-12.6,0-25.19,0-37.79-.26,0-.51,0-.77,0,0,8.98,0,17.95,0,26.93-.27,0-.55,0-.82.01,0-3.98,0-7.95,0-11.93-.28,0-.56,0-.85,0,0,7.58,0,15.16,0,22.74-.26,0-.53,0-.79,0,0-9.71,0-19.42,0-29.13-.19,0-.38,0-.57-.01-.46,12.6-.92,25.19-1.38,37.79-.16,0-.32,0-.48,0,0-7.61,0-15.22,0-22.83-.26,0-.51,0-.77,0,0,8.99,0,17.99,0,26.98-.27,0-.53,0-.8,0,0-12.24,0-24.48,0-36.72-.26,0-.52,0-.78,0,0,9.72,0,19.43,0,29.15-.26,0-.52,0-.79.01,0-11.49,0-22.98,0-34.47-.27,0-.54,0-.81,0,0,12.53,0,25.06,0,37.6-.27,0-.53,0-.8.01,0-11.84,0-23.68,0-35.52-.22,0-.43-.01-.65-.02-.46,8.34-.92,16.67-1.37,25.01-.15,0-.3,0-.44,0,0-5.74,0-11.48,0-17.23-.1,0-.2,0-.3,0-.84,14.67-1.68,29.34-2.52,44.01-.11,0-.23.02-.34.03,0-14.74,0-29.47,0-44.21-.27,0-.54,0-.81,0,0,15.82,0,31.63,0,47.45-.27,0-.54,0-.81,0,0-15.11,0-30.22,0-45.33-.25,0-.51,0-.76,0,0,7.19,0,14.38,0,21.56-.26,0-.52,0-.78.01,0-11.49,0-22.98,0-34.48-.3,0-.61,0-.91,0,0,10.46,0,20.91,0,31.37-.26,0-.52,0-.78,0,0-10.79,0-21.59,0-32.38-.26,0-.51,0-.77,0,0,9.36,0,18.71,0,28.07-.25,0-.5,0-.75,0,0-7.49,0-14.97,0-22.46-.17-.02-.35-.04-.52-.05-.17,1.42-.33,2.85-.67,5.79-1.13-17.71-2.16-33.82-3.22-50.34-3.38,1.94-5.95,3.41-8.54,4.9-1.78-5.15-3.31-5.66-7.2-1.99-.81.76-2.08.62-3.14.89-1.54.4-3.08.8-4.13,1.08-2.59-.92-6-3.62-7.39-2.33-4.05,3.73-5.77,9.94-5.46,18.36-.58-1.87-.78-2.32-.85-2.8-.1-.66-.1-1.36-.69-2.03,0,4.02,0,8.03,0,12.05-.26.01-.52.03-.77.04-.11-2.92-.23-5.84-.34-8.76-.18,0-.37,0-.55,0,0,6.17,0,12.34,0,18.5-.25,0-.5,0-.75,0,0-4.29,0-8.58,0-12.87-.25,0-.49-.01-.74-.02,0,7.13,0,14.25,0,21.38-.27,0-.55,0-.82,0,0-4.31,0-8.61,0-12.92-1.63,8.85.53,18.39-3.61,28.03-.42-2.99-.66-4.74-.9-6.5-.14.02-.27.04-.41.06,0,5.39,0,10.78,0,16.17-.24,0-.47,0-.71,0v-16.21c-.28,0-.56,0-.84,0,0,4.76,0,9.51,0,14.27-.28,0-.56,0-.83,0,0-6.57,0-13.13,0-19.7-.25,0-.5,0-.75,0,0,6.11,0,12.21,0,18.32-.26,0-.51.01-.77.02v-25.77c-.3,0-.59,0-.89,0,0,9.38,0,18.75,0,28.13-.26,0-.52,0-.78,0,0-8.99,0-17.98,0-26.97-.26,0-.51,0-.77,0,0,9.72,0,19.43,0,29.15-.26,0-.53,0-.79,0,0-9.31,0-18.61,0-27.92-.26,0-.52,0-.78-.01,0,9.64,0,19.29,0,28.93-.29,0-.57,0-.86,0,0-8.3,0-16.59,0-24.89-.26,0-.53,0-.79,0,0,8.99,0,17.98,0,26.98-.27,0-.53,0-.8.01,0-9,0-18.01,0-27.01-.26,0-.53,0-.79,0v25.9c-.26,0-.53,0-.79.01,0-8.65,0-17.3,0-25.94-.26,0-.52,0-.78,0,0,7.53,0,15.06,0,22.59-.26,0-.53.01-.79.02,0-8.93,0-17.87,0-26.8-.29,0-.58,0-.87,0,0,5.8,0,11.59,0,17.39-.26,0-.51,0-.77-.01,0-8.98,0-17.97,0-26.95-.26,0-.52,0-.78-.01,0,8.22,0,16.43,0,24.65-.29,0-.57,0-.86.01,0-7.6,0-15.2,0-22.8-.25,0-.51,0-.76,0,0,6.47,0,12.94,0,19.4-.25,0-.51.02-.76.03,0-6.77,0-13.54,0-20.31-.29,0-.58,0-.87,0,0,7.92,0,15.84,0,23.77-.26,0-.52,0-.78,0,0-7.53,0-15.06,0-22.58-.25,0-.49-.02-.74-.02,0,5.32,0,10.64,0,15.96-.26,0-.53,0-.79.01,0-6.1,0-12.21,0-18.31-.2-.01-.4-.03-.6-.04-.13,1.48-.27,2.95-.4,4.42-.22,0-.43,0-.65,0,0-5.43,0-10.86,0-16.29-.19,0-.39,0-.58-.01-.15,2.95-.3,5.89-.45,8.84-.15,0-.31,0-.46,0-.13-3-.26-5.99-.42-9.79-.39,1.59-.61,2.46-1.09,4.37-.21-2.92-.35-4.79-.49-6.66-.09-.06-.22-.2-.25-.17-.09.1-.17.25-.19.4-.11.69-.19,1.38-.3,2.16-.26-.31-.54-.48-.56-.7-.4-3.83-.8-6.95-3.06-10.53-2.22-3.52-1.9-10.57-1.77-16.03.15-6.41,1.31-12.77,2.02-19.14.17.58.42,1.41.86,2.87.16-2.46.27-4.32.39-6.19.15,0,.3-.01.45-.02.14,2.5.28,5,.43,7.49.82-5.47,1.63-10.94,2.64-17.77.35,2.18.49,3,.62,3.81l.34.06c.11-2.7.23-5.4.37-8.75.57,1.24.82,1.77,1.35,2.9,0-3.87,0-7.08,0-11.54.76,1.37,1,1.82,1.63,2.95,0-4.63,0-8.66,0-14.11,1.39,3.28,2.22,5.22,3.02,7.12,5.14-3.95,3.48-11.77,5.55-17.77.2,1.19.4,2.43.79,4.78.24-2.64.38-4.23.52-5.82.14,0,.27,0,.41.01.13,2.23.26,4.46.38,6.7.11.03.22.05.33.08.15-1.19.29-2.39.44-3.58l.47.05c.12,2.46.23,4.91.39,8.33.38-1.9.59-2.94.79-3.98.14,0,.27-.01.41-.02.13,2.93.25,5.86.38,8.78.14,0,.28,0,.42.01.11-2.9.22-5.8.33-8.69.15-.02.31-.03.46-.05.14,2.63.28,5.26.42,7.89.13,0,.26-.01.39-.02.12-3.02.25-6.03.37-9.05.2,0,.39,0,.59.01,0,4.06,0,8.12,0,12.19.2,0,.4.02.6.03.11-1.9.22-3.79.32-5.69.18,0,.37,0,.55-.01.12,2.9.23,5.8.35,8.71.1.02.2.03.3.05.18-1.89.37-3.78.55-5.67.14.01.28.03.42.04.11,2.68.22,5.36.33,8.04l.38.03c.12-1.52.24-3.04.45-5.77.67,9.24,1.25,17.25,1.83,25.26.33,0,.66,0,.99,0,.13-1.94.25-3.87.38-5.81.15.01.29.02.44.04.13,3.34.25,6.69.38,10.03.12,0,.25,0,.37,0,.13-3.02.26-6.04.4-9.05.14,0,.28,0,.42,0,.14,2.99.28,5.99.42,8.98.11,0,.22.01.34.02.15-2.54.29-5.09.44-7.63.16-.01.31-.02.46-.04.12,3.54.23,7.08.35,10.62.12.01.23.02.35.03.13-2.5.26-5,.39-7.5.13-.02.26-.04.39-.06.14,1.45.07,4.04.46,4.17,3.15,1.09,2.86,4.95,3.74,7.8.5,1.61.82,3.34,1.07,5.06.56,3.79,3.74,6.58,6.25,5.2,1.5-.82,2.89-2.02,3.72-2.62,2.08.76,3.79,1.42,5.52,2.01.5.17,1.29-.14,1.51.23,1.26,2.15,2.4,2.49,4.23.82,3.36-3.07,6.6-.59,10.29,1.72,3.92-11.84,4.05-24.16,4.64-36.77,1.03,1.1,1.9,2.02,3.68,3.92,1.16-9.29,2.26-18.2,3.31-26.64,0,0,.22.79.77,2.72,0-6.46,0-11.54,0-16.87"/>
    <path class="st1" d="M395.03,7.95c.13,3.52.25,6.74.38,10.26.12,0,.31.03.32,0,.15-.75.28-1.51.78-2.18.34,7.65.68,15.29,1.03,22.94.29,0,.58-.02.87-.03,0-9.79,0-19.57,0-29.36.26,0,.53,0,.79,0,0,9.71,0,19.42,0,29.13.26,0,.51,0,.77,0,0-7.57,0-15.13,0-22.7.28,0,.55,0,.83,0,0,6.56,0,13.12,0,19.68.28,0,.56,0,.84,0,0-7.62,0-15.24,0-22.86.21,0,.42,0,.62,0,.12,3.57.24,7.15.37,10.72.14,0,.27.02.41.03.12-3.55.23-7.1.35-10.65.11,0,.21,0,.32-.01.44,6.81.88,13.63,1.32,20.44.2,0,.41,0,.61-.01,0-7.57,0-15.14,0-22.71.26,0,.52,0,.77,0,0,7.91,0,15.82,0,23.73.17,0,.34.01.51.02.13-2.86.26-5.73.39-8.59.15,0,.3-.02.45-.03.29,5.34.58,10.69.87,16.03.28,0,.57-.01.85-.02.39-4.19.79-8.37,1.18-12.56.13-.01.26-.03.39-.04.46,6.52.92,13.04,1.38,19.56.15,0,.31,0,.46,0,0-4.79,0-9.58,0-14.36.22-.02.44-.04.66-.06l.4,2.32c.14.01.29.03.43.04,0-3.98,0-7.97,0-11.95.24,0,.49,0,.73,0,.12,3.67.24,7.34.36,11,.11,0,.23,0,.34,0,.15-2.96.3-5.93.44-8.89.15-.01.3-.02.45-.04.53,4.87,1.07,9.74,1.6,14.61.26-.02.53-.04.79-.06.11-3.31.23-6.61.34-9.92.14-.02.28-.04.42-.05.15,2.44.3,4.88.53,8.44.4-2.88.66-4.72.91-6.55.3-.03.59-.05.89-.08.21,3.02.43,6.04.65,9.06.08,0,.16,0,.25-.01.14-4.4.29-8.81.43-13.21.14,0,.28,0,.42,0,.14,4.06.27,8.12.41,12.19.2,0,.41,0,.61-.01,0-4.06,0-8.12,0-12.18.16,0,.32,0,.48,0,.34,8.77.69,17.53,1.03,26.3.17,0,.34-.01.51-.02.39-5.48.78-10.96,1.17-16.45.35.01.69.02,1.04.03,0,10.52,0,21.04,0,32.67,1.33-2.27,2.04-3.49,3.05-5.22,1.07,6.26,1.95,11.46,2.81,16.48,2.68.36,4.91.66,7.47,1.01.63-4.92,1.21-9.44,1.87-14.58,2.25,5.12,4.26,9.68,6.52,14.83,3.16.2,6.9.35,10.63.72,4.45.44,5.86-1.12,6.49-6.99.62-5.78,1.45-11.53,2.31-18.29.33,5.95.61,10.94.89,15.93.23-.01.46-.02.69-.04.3-1.64.6-3.28,1.16-6.38.59,2.6.86,3.8,1.13,5,.1-.1.26-.17.29-.3.13-.51.22-1.03.33-1.56.18.06.45.05.52.2.43.98.89,2.88,1.22,2.84,1.45-.19,2.89-.85,4.29-1.5,3.42-1.59,2.86-5.64,3.02-9.21.23-5.22.43-10.43.68-16.43.99,3.63,1.79,6.59,2.65,9.75.19-1.4.37-2.72.65-4.72.36,1.68.6,2.77.9,4.18.91-.91,1.7-1.71,2.68-2.69.14,1.7.27,3.24.4,4.79.15,0,.31,0,.46.01,0-4.35,0-8.69,0-13.04.28,0,.56,0,.84,0,0,4.39,0,8.77,0,13.16.25,0,.5,0,.75,0,0-6.11,0-12.21,0-18.32.24-.01.48-.03.72-.04,0,3.56,0,7.13,0,10.69.21.02.42.03.63.05.16-1.92.32-3.83.48-5.75.13,0,.27,0,.4-.01.16,1.56.31,3.12.47,4.68.09.02.19.04.29.06.15-2.11.3-4.21.45-6.32.36-.13.72-.27,1.09-.4.94,4.62,1.88,9.24,2.64,12.98,0-2.43,0-5.99,0-9.55.23,0,.46-.02.68-.03.14,2.89.29,5.78.46,9.18.48-1.46.85-2.57,1.42-4.28,1.13,2.17,1.99,3.83,2.83,5.46.17-.52.42-1.29.81-2.48.24,1.42.42,2.48.35,2.07,1.73-1.05,3.52-2.14,5.31-3.23.28.51.56,1.01.83,1.52.17-1.42.34-2.84.63-5.21,1.03,3.92,1.84,6.98,2.99,11.37.45-3.21.7-5.03.95-6.84.1,0,.21,0,.32,0,.13,2.95.25,5.9.36,8.39.84-1.36,1.8-2.93,3.07-5.01.48,1.47.8,2.48,1.25,3.85.21-1.6.38-2.89.65-4.97.36,1.7.58,2.72.85,4,.29-.93.48-1.56.93-3.02.23,2.15.37,3.57.63,6,.42-2.39.66-3.74.9-5.09.27-.03.54-.06.81-.1.21,2.29.42,4.58.76,8.31.3-3.34.48-5.29.66-7.25.12,0,.24,0,.35,0,.12,1.95.25,3.9.46,7.3.41-2.69.61-4.03.81-5.37.31-.02.61-.03.92-.05.22,3.43.44,6.86.66,10.29.1.02.21.04.31.05.15-2.61.31-5.21.46-7.82.13,0,.26,0,.4,0,.13,2.66.27,5.32.4,7.98.12,0,.24,0,.36,0,.16-2.95.32-5.9.48-8.86.34-.03.67-.06,1.01-.09.23,3.3.46,6.6.69,9.89.14,0,.28,0,.42-.01,0-4.66,0-9.33,0-13.99.24,0,.48-.01.72-.02,0,3.57,0,7.14,0,10.7.33.01.65.03.98.04,0-3.82,0-7.65,0-11.48.4,0,.8,0,1.21,0,.2,4.87.4,9.74.59,14.61.14,0,.29.01.43.02,0-3.56,0-7.13,0-10.69.27,0,.53-.02.8-.02,0,3.58,0,7.17,0,10.75.32.02.65.03.97.05,0-3.82,0-7.64,0-11.46.4,0,.79,0,1.19,0,.21,4.5.42,9.01.64,13.51.14.01.28.03.42.04,0-3.92,0-7.84,0-11.76.25,0,.5-.01.75-.02.12,3.59.24,7.19.35,10.78.12,0,.24,0,.35.01.16-3.24.31-6.48.47-9.73.33-.03.66-.06.99-.08.23,3.69.47,7.38.7,11.07l.28.02c.11-2.29.21-4.58.32-6.87.14,0,.28-.02.42-.03.17,1.87.34,3.73.55,6.06.45-1.74.81-3.13,1.17-4.52.21.03.42.06.64.09.19,2.18.39,4.35.58,6.53.11.01.23.02.34.03.12-1.33.24-2.67.47-5.3.42,2.26.6,3.25.81,4.38.5-.54.96-1.03,1.52-1.63,1.75,5.97,4.67,9.53,10.23,8.77.36-6.55.71-13.12,1.07-19.68.11,0,.22-.02.33-.02.15,2.58.3,5.15.42,7.19,1.05-.58,2.15-1.2,3.46-1.92.39,1.97.8,4.07,1.44,7.27.7-2.78,1.12-4.44,1.54-6.1,2.1,3.76,2.8,8.5,7.21,10.28,3.64,1.47,6.73,5.42,11,4.33l.75-77.08"/>
  </g>
  <path class="st1" d="M296,11.88v176.94H10.92V11.88h285.07M300,7.88H6.92v184.94h293.07V7.88h0Z"/>
</svg>