<?xml version="1.0" encoding="UTF-8"?>
<svg id="Layer_1" xmlns="http://www.w3.org/2000/svg" version="1.1" viewBox="0 0 600 200">
  <!-- Generator: Adobe Illustrator 29.6.1, SVG Export Plug-In . SVG Version: 2.1.1 Build 9)  -->
  <defs>
    <style>
      .st0 {
        stroke: #fff;
        stroke-miterlimit: 10;
        stroke-width: .4px;
      }

      .st0, .st1 {
        fill: #fff;
      }
    </style>
  </defs>
  <g>
    <polyline class="st1" points="84.85 83.78 58.83 44.02 58.83 125.32 46.74 125.32 46.74 23.1 58.83 23.1 91.73 73.67"/>
    <polyline class="st1" points="91.32 73.08 84.25 82.92 93.88 97.62 129.2 43.74 129.2 125.2 141.13 125.2 141.13 22.98 129.2 22.98 93.88 77.02 90.97 72.54"/>
  </g>
  <path class="st1" d="M184.9,115.89s61.87-29.87,61.87-59.42c0-12.89-11.57-22.95-27.83-22.95-13.08,0-24.31,7.55-28.34,15.25l-9.05-7.07c2.28-3.45,5.18-6.55,8.58-9.19,7.61-5.91,17.73-9.52,28.97-9.52,23.31,0,40.41,14.62,40.41,33.64,0,32.07-51.64,58.16-51.64,58.16h52.31v10.53h-75.29v-9.43Z"/>
  <g>
    <path class="st0" d="M47.07,156.15h2.74v17.04h10.15v2.41h-12.89v-19.45Z"/>
    <path class="st0" d="M117.94,156.15h3.14l8.35,19.45h-3.02l-1.71-3.95h-10.52l-1.68,3.95h-2.93l8.35-19.45ZM123.71,169.27l-4.24-9.89-4.24,9.89h8.47Z"/>
    <path class="st0" d="M179.55,156.15h7.99c3.11,0,5.58,2.44,5.58,5.22,0,1.51-.79,2.84-1.98,3.71,1.89.9,3.23,2.74,3.23,4.86,0,3.11-2.65,5.67-6.01,5.67h-8.81v-19.45ZM187.2,164.33c1.71,0,3.14-1.3,3.14-2.9s-1.43-2.87-3.14-2.87h-4.91v5.76h4.91ZM188.09,173.19c1.95,0,3.51-1.48,3.51-3.26s-1.55-3.29-3.45-3.29h-5.85v6.55h5.79Z"/>
    <path class="st0" d="M244.21,172.71l1.83-1.75c1.34,1.45,3.87,2.41,6.01,2.41,2.47,0,5.36-1.06,5.36-3.17,0-4.49-12.65-2.47-12.65-9.05,0-3.11,3.32-5.19,7.56-5.19,2.87,0,5.4.84,7.22,2.35l-1.8,1.78c-1.4-1.14-3.41-1.72-5.43-1.72-2.44,0-4.79.88-4.79,2.78,0,4.04,12.65,2.32,12.65,8.87,0,4.04-4.24,5.76-8.14,5.76-2.99,0-6.1-1.33-7.83-3.08Z"/>
  </g>
  <g>
    <path class="st1" d="M300,7.88v183.01l292.53.93-.75-106.3c-8.71-.45-16.62,6.94-17.94,17.48-.59-2.99-1.04-5.28-1.7-8.58-.64,2.48-1.05,4.07-1.51,5.86-1.97-4.34-3.9-8.61-6.37-14.06-2,1.36-4.56,3.08-7.61,5.15,0-.03-.12,1.53-.34,4.33-1.53-1.81-2.61-3.09-3.55-4.19-.06.6-.2,1.95-.37,3.69-1.26-.74-2.39-1.41-3.62-2.14-.45,1.16-1.31,3.4-2.68,6.98-.46-3.15-.72-4.94-.92-6.32-.62,2.09-1.35,4.52-2.08,6.96-.35-.05-.69-.11-1.04-.16-.35-2.1-.71-4.19-1.22-7.23-.15,3.23-.25,5.52-.42,9.29-.52-1.91-.67-2.46-1.05-3.86-.25,2.04-.4,3.35-.62,5.13-.52-1.61-.87-2.69-1.65-5.06-.35,3.09-.55,4.86-.75,6.63-.13-.03-.25-.06-.38-.09-.11-2.85-.21-5.7-.32-8.54-.1-.01-.2-.03-.3-.04-.2,2.36-.39,4.72-.59,7.08-.22.06-.43.13-.65.19-.4-1.41-.81-2.81-1.52-5.3,0,5.08,0,9,0,12.92-.23,0-.45.02-.68.02,0-3.89,0-7.79,0-11.68-.27,0-.55-.01-.82-.02,0,4.96,0,9.93,0,14.89-.22.01-.45.03-.67.04-.12-1.15-.23-2.3-.4-3.95-.53,1.51-.92,2.64-1.32,3.77-.26-.03-.52-.07-.78-.1-.12-3.1-.24-6.19-.36-9.29-.17,0-.34,0-.51,0,0,6.13,0,12.26,0,18.39-.21,0-.42,0-.62,0-.15-4.04-.29-8.07-.44-12.11-.16,0-.32,0-.48,0,0,4.27,0,8.55,0,12.82-.22.02-.43.04-.65.06-.48-5.25-.96-10.5-1.45-15.74-.11-.01-.21-.02-.32-.03v18.1c-.28,0-.56,0-.84,0,0-6.15,0-12.31,0-18.46-.28,0-.56,0-.84,0,0,6.51,0,13.02,0,19.54-.16,0-.32,0-.49,0-.36-4.96-.72-9.93-1.08-14.89-.23,0-.46,0-.69,0,0,8.17,0,16.34,0,24.5-.3,0-.61,0-.91,0v-27.97c-.25,0-.51,0-.76,0,0,7.5,0,15,0,22.49-.26,0-.51.02-.77.03,0-6.05,0-12.11,0-18.16-.3,0-.6,0-.91,0,0,5.93,0,11.86,0,17.8-.41.03-.82.06-1.23.09v-15.81c-.37,0-.74,0-1.11,0,0,8.58,0,17.15,0,25.73-.26,0-.52.01-.78.02v-24.64c-.29,0-.58,0-.87,0,0,9.34,0,18.67,0,28.01h-.78c0-5.7,0-11.41,0-17.11-.26,0-.51,0-.77-.01,0,6.02,0,12.05,0,18.07-.4,0-.79,0-1.19,0,0-9.91,0-19.83,0-29.74-.4,0-.79,0-1.19-.02,0,11.38,0,22.77,0,34.15-.26,0-.53,0-.79,0,0-9.95,0-19.89,0-29.84-.26,0-.52,0-.78-.01,0,9.93,0,19.86,0,29.78-.28,0-.56,0-.84.01,0-8.6,0-17.2,0-25.8-.29,0-.57,0-.86,0,0,10.77,0,21.54,0,32.31-.26,0-.52,0-.78,0,0-8.21,0-16.43,0-24.64-.15,0-.3,0-.45-.01-.47,8.21-.94,16.43-1.41,24.64-.16,0-.33,0-.49,0,0-13.51,0-27.02,0-40.52-.26,0-.52,0-.77,0,0,9.22,0,18.43,0,27.65-.28,0-.56,0-.84,0,0-9.71,0-19.43,0-29.14-.29,0-.57,0-.86,0v24.98c-.25,0-.5,0-.76,0,0-7.13,0-14.27,0-21.4-.25,0-.51,0-.76-.01,0,9.59,0,19.17,0,28.76-.29,0-.58,0-.86,0,0-9.67,0-19.34,0-29.01-.23,0-.46,0-.69,0v16.08c-.22.06-.43.12-.65.18-.18-.86-.35-1.72-.72-3.55-.29,2.44-.48,4.01-.66,5.58-.33.01-.65.02-.98.03,0-8.27,0-16.53,0-24.8-.36,0-.72,0-1.08,0,0,8.93,0,17.87,0,26.8-.26,0-.52,0-.78.02,0-7.51,0-15.03,0-22.54-.29,0-.58,0-.87,0,0,9.01,0,18.02,0,27.03-.26,0-.52,0-.78,0,0-8.57,0-17.14,0-25.71-.26,0-.52,0-.78,0,0,12.15,0,24.3,0,36.45-.27,0-.54,0-.81,0,0-12.51,0-25.03,0-37.54-.27,0-.53,0-.8,0,0,10.38,0,20.75,0,31.13-.26,0-.52,0-.78,0,0-9.65,0-19.29,0-28.93-.25,0-.5-.01-.75-.02,0,5.68,0,11.35,0,17.03-.27,0-.53,0-.8,0,0-6.46,0-12.91,0-19.37-.17,0-.35-.02-.52-.03-.16,1.12-.31,2.24-.47,3.35-1.32-9.7,1.71-21.54-8.4-26.45-.59.43-1.69,1.22-3,2.17-.3-1.23-.56-2.29-1.13-4.69-.53,6.06-.95,10.74-1.36,15.42-.29.02-.58.05-.87.07-.29-4.74-.57-9.49-.89-14.23-.32-4.82-1.95-6.42-5.47-5.97-2.52.33-5.08.35-7.6.17-5.31-.38-7.23,1.49-8.05,8.21-.28,2.3-.41,4.65-.88,6.88-.45,2.15-1.24,4.17-2.03,6.7-.31-5.35-.37-10.4-.99-15.33-.24-1.94-1.41-4.26-2.67-5.27-2.15-1.74-4.59-.42-5.29,2.55-1.22,5.16-1.74,10.61-2.52,15.95-.14.97-.12,1.99-1.1,3.14-.58-4.44-1.16-8.87-1.74-13.31l-.41-.06c-.58,13.32-1.17,26.64-1.75,39.96-.09,0-.17.02-.26.03-.36-5.68-.73-11.36-1.09-17.05-.23,0-.46.01-.7.02,0,10.02,0,20.05,0,30.07-.43.08-.87.17-1.3.25-.86-6.22-1.72-12.44-2.6-18.85-.14,3.78-.27,7.43-.41,11.07-.14,0-.28.01-.43.02-.13-2.94-.25-5.87-.38-8.81-.11,0-.21-.02-.32-.03-.19,2.61-.38,5.21-.57,7.82-.18,0-.37-.02-.55-.03,0-5.71,0-11.42,0-17.12-.25,0-.49,0-.74,0,0,10.36,0,20.72,0,31.08-.28,0-.56,0-.84,0,0-7.57,0-15.14,0-22.7-.25,0-.51,0-.76,0,0,11.08,0,22.17,0,33.25-.27,0-.53,0-.8.01,0-10.37,0-20.75,0-31.12-.26,0-.52,0-.79,0,0,9.29,0,18.59,0,27.88-.25,0-.5.02-.76.02,0-5.71,0-11.42,0-17.13l-.81-.05c-.4,5.39-.81,10.78-1.21,16.16-.14,0-.28,0-.42,0,0-5.03,0-10.07,0-15.1-.2,0-.4,0-.59,0-.14,4.37-.29,8.74-.43,13.12-.2,0-.39,0-.59,0,0-12.51,0-25.03,0-37.54-.26,0-.51,0-.77,0,0,8.92,0,17.83,0,26.75-.27,0-.55,0-.82.01,0-3.95,0-7.9,0-11.85-.28,0-.56,0-.84,0,0,7.53,0,15.06,0,22.59-.26,0-.52,0-.79,0,0-9.65,0-19.29,0-28.94-.19,0-.38,0-.57-.01-.46,12.51-.92,25.03-1.37,37.54-.16,0-.32,0-.48,0,0-7.56,0-15.12,0-22.68-.26,0-.51,0-.77,0,0,8.93,0,17.87,0,26.8-.27,0-.53,0-.8,0,0-12.16,0-24.32,0-36.48-.26,0-.52,0-.78,0v28.96c-.26,0-.52,0-.78.01,0-11.42,0-22.83,0-34.25-.27,0-.54,0-.8,0,0,12.45,0,24.9,0,37.35-.27,0-.53,0-.8.01,0-11.76,0-23.53,0-35.29-.22,0-.43-.01-.65-.02-.46,8.28-.91,16.56-1.37,24.84-.15,0-.29,0-.44,0,0-5.7,0-11.41,0-17.11-.1,0-.2,0-.3,0-.84,14.57-1.68,29.14-2.52,43.72-.11,0-.22.02-.34.03,0-14.64,0-29.28,0-43.91-.27,0-.54,0-.81,0,0,15.71,0,31.43,0,47.14-.27,0-.54,0-.81,0,0-15.01,0-30.02,0-45.03-.25,0-.51,0-.76,0,0,7.14,0,14.28,0,21.42-.26,0-.52,0-.78.01,0-11.42,0-22.83,0-34.25-.3,0-.6,0-.91,0v31.16c-.26,0-.52,0-.78,0,0-10.72,0-21.44,0-32.17-.25,0-.51,0-.76,0,0,9.29,0,18.59,0,27.88-.25,0-.5,0-.75,0,0-7.44,0-14.87,0-22.31-.17-.02-.35-.04-.52-.05-.17,1.41-.33,2.83-.67,5.76-1.13-17.59-2.16-33.6-3.21-50.01-3.37,1.93-5.93,3.39-8.51,4.87-1.78-5.11-3.3-5.62-7.18-1.98-.8.75-2.07.61-3.13.89-1.53.4-3.07.8-4.12,1.07-2.59-.91-5.98-3.59-7.37-2.32-4.04,3.71-5.75,9.87-5.44,18.24-.58-1.86-.78-2.3-.85-2.79-.1-.66-.1-1.35-.69-2.02,0,3.99,0,7.98,0,11.97-.26.01-.51.03-.77.04-.11-2.9-.23-5.8-.34-8.71-.18,0-.37,0-.55,0,0,6.13,0,12.25,0,18.38-.25,0-.5,0-.74,0,0-4.26,0-8.52,0-12.79-.25,0-.49-.01-.74-.02,0,7.08,0,14.16,0,21.24-.27,0-.55,0-.82,0v-12.84c-1.62,8.79.52,18.27-3.6,27.84-.41-2.97-.66-4.71-.9-6.45-.14.02-.27.04-.41.06,0,5.36,0,10.71,0,16.07-.24,0-.47,0-.71,0,0-5.37,0-10.74,0-16.11-.28,0-.56,0-.84,0,0,4.72,0,9.45,0,14.17-.28,0-.55,0-.83,0,0-6.52,0-13.05,0-19.57-.25,0-.5,0-.74,0,0,6.07,0,12.13,0,18.2-.26,0-.51.01-.77.02v-25.6c-.3,0-.59,0-.89,0,0,9.31,0,18.63,0,27.94-.26,0-.52,0-.78,0,0-8.93,0-17.86,0-26.79-.26,0-.51,0-.77,0,0,9.65,0,19.31,0,28.96-.26,0-.52,0-.79,0,0-9.24,0-18.49,0-27.73-.26,0-.52,0-.78-.01,0,9.58,0,19.16,0,28.74-.29,0-.57,0-.86,0,0-8.24,0-16.48,0-24.72-.26,0-.53,0-.79,0,0,8.93,0,17.87,0,26.8-.27,0-.53,0-.8.01,0-8.94,0-17.89,0-26.83-.26,0-.53,0-.79,0,0,8.58,0,17.15,0,25.73-.26,0-.53,0-.79.01,0-8.59,0-17.18,0-25.77-.26,0-.52,0-.77,0,0,7.48,0,14.96,0,22.44-.26,0-.52.01-.79.02,0-8.88,0-17.75,0-26.62-.29,0-.58,0-.87,0,0,5.76,0,11.51,0,17.27-.26,0-.51,0-.77-.01,0-8.92,0-17.85,0-26.77-.26,0-.52,0-.78-.01,0,8.16,0,16.32,0,24.49-.28,0-.57,0-.85.01,0-7.55,0-15.1,0-22.65-.25,0-.51,0-.76,0,0,6.43,0,12.85,0,19.28-.25,0-.51.02-.76.03v-20.17c-.29,0-.58,0-.87,0,0,7.87,0,15.74,0,23.61-.26,0-.52,0-.78,0,0-7.48,0-14.96,0-22.44-.25,0-.49-.02-.74-.02,0,5.28,0,10.57,0,15.85-.26,0-.52,0-.79.01,0-6.06,0-12.13,0-18.19-.2-.01-.4-.03-.6-.04-.13,1.47-.26,2.93-.4,4.4-.22,0-.43,0-.65,0,0-5.39,0-10.79,0-16.18-.19,0-.39,0-.58-.01-.15,2.93-.3,5.85-.45,8.78-.15,0-.31,0-.46,0-.13-2.98-.26-5.95-.42-9.72-.39,1.58-.61,2.44-1.08,4.35-.21-2.9-.35-4.76-.49-6.62-.09-.06-.22-.2-.25-.17-.09.1-.17.25-.19.4-.11.68-.19,1.37-.3,2.15-.26-.31-.54-.48-.56-.7-.4-3.81-.8-6.9-3.05-10.46-2.22-3.5-1.89-10.5-1.76-15.92.15-6.37,1.3-12.69,2.02-19.01.17.58.42,1.4.86,2.85.16-2.44.27-4.3.39-6.15.15,0,.3-.01.44-.02.14,2.48.28,4.96.43,7.44.81-5.44,1.62-10.87,2.64-17.66.35,2.16.49,2.98.62,3.79l.34.06c.11-2.68.23-5.37.37-8.69.57,1.23.82,1.75,1.34,2.88,0-3.84,0-7.03,0-11.46.76,1.36,1,1.81,1.63,2.93,0-4.6,0-8.6,0-14.02,1.39,3.26,2.21,5.19,3.01,7.07,5.13-3.93,3.47-11.69,5.53-17.65.2,1.19.4,2.41.78,4.75.24-2.63.38-4.2.52-5.78.14,0,.27,0,.41.01.13,2.22.26,4.43.38,6.65.11.03.22.05.33.08.15-1.19.29-2.37.44-3.56l.47.05c.12,2.44.23,4.88.39,8.27.38-1.89.58-2.92.79-3.95.14,0,.27-.01.41-.02.12,2.91.25,5.82.37,8.72.14,0,.28,0,.42.01.11-2.88.22-5.76.33-8.64.15-.02.31-.03.46-.04.14,2.61.28,5.22.42,7.84.13,0,.26-.01.39-.02.12-3,.25-5.99.37-8.99.19,0,.39,0,.58.01,0,4.04,0,8.07,0,12.11.2,0,.4.02.59.03.11-1.88.21-3.77.32-5.65.18,0,.37,0,.55-.01.12,2.88.23,5.77.35,8.65.1.02.2.03.3.05.18-1.88.37-3.76.55-5.63.14.01.28.03.42.04.11,2.66.22,5.33.33,7.99l.38.03c.12-1.51.24-3.02.45-5.73.67,9.18,1.25,17.13,1.82,25.09.33,0,.66,0,.99,0,.13-1.92.25-3.85.38-5.77.15.01.29.02.44.04.13,3.32.25,6.64.38,9.97.12,0,.24,0,.37,0,.13-3,.26-6,.39-8.99.14,0,.28,0,.42,0,.14,2.97.28,5.95.42,8.93.11,0,.22.01.34.02.15-2.53.29-5.05.44-7.58.15-.01.31-.02.46-.04.11,3.52.23,7.04.34,10.55.12.01.23.02.35.03.13-2.48.26-4.96.39-7.45.13-.02.26-.04.38-.06.14,1.44.07,4.01.46,4.15,3.14,1.08,2.85,4.91,3.73,7.74.5,1.6.81,3.32,1.07,5.02.56,3.77,3.73,6.53,6.23,5.16,1.5-.82,2.88-2.01,3.71-2.6,2.08.76,3.78,1.41,5.51,1.99.49.17,1.28-.14,1.5.23,1.26,2.14,2.39,2.47,4.22.81,3.35-3.05,6.59-.58,10.26,1.71,3.91-11.76,4.04-24,4.62-36.53,1.03,1.09,1.89,2.01,3.67,3.9,1.15-9.23,2.26-18.08,3.3-26.46,0,0,.22.79.76,2.7,0-6.42,0-11.46,0-16.76"/>
    <path class="st1" d="M394.76,8.18c.13,3.5.25,6.69.38,10.19.12,0,.31.03.32,0,.15-.75.28-1.5.78-2.16.34,7.6.68,15.19,1.02,22.79.29,0,.58-.02.86-.03,0-9.72,0-19.44,0-29.17.26,0,.53,0,.79,0,0,9.65,0,19.29,0,28.94.26,0,.51,0,.77,0,0-7.52,0-15.03,0-22.55.28,0,.55,0,.83,0,0,6.52,0,13.03,0,19.55.28,0,.56,0,.84,0,0-7.57,0-15.14,0-22.71.21,0,.41,0,.62,0,.12,3.55.24,7.1.37,10.65.14,0,.27.02.41.03.11-3.53.23-7.05.34-10.58.11,0,.21,0,.32-.01.44,6.77.88,13.54,1.32,20.31.2,0,.4,0,.61-.01V10.87c.26,0,.51,0,.77,0,0,7.86,0,15.71,0,23.57.17,0,.34.01.51.02.13-2.84.26-5.69.39-8.53.15,0,.3-.02.45-.03.29,5.31.58,10.62.86,15.93.28,0,.57-.01.85-.02.39-4.16.79-8.32,1.18-12.48.13-.01.26-.03.39-.04.46,6.48.92,12.96,1.38,19.43.15,0,.31,0,.46,0,0-4.76,0-9.51,0-14.27.22-.02.44-.04.65-.06l.4,2.31c.14.01.29.03.43.04,0-3.96,0-7.92,0-11.88.24,0,.49,0,.73,0,.12,3.64.24,7.29.36,10.93.11,0,.23,0,.34,0,.15-2.94.29-5.89.44-8.83.15-.01.3-.02.44-.04.53,4.84,1.06,9.68,1.59,14.52.26-.02.53-.04.79-.06.11-3.29.23-6.57.34-9.86.14-.02.28-.04.42-.05.15,2.42.3,4.85.52,8.38.4-2.86.65-4.68.91-6.5.29-.03.59-.05.88-.08.21,3,.43,6,.64,9,.08,0,.16,0,.25-.01.14-4.37.29-8.75.43-13.12.14,0,.28,0,.42,0,.14,4.04.27,8.07.41,12.11.2,0,.4,0,.61-.01,0-4.03,0-8.07,0-12.1.16,0,.32,0,.48,0,.34,8.71.69,17.41,1.03,26.12.17,0,.34-.01.51-.02.39-5.45.78-10.89,1.17-16.34.35.01.69.02,1.04.03,0,10.45,0,20.9,0,32.46,1.32-2.25,2.04-3.47,3.04-5.18,1.07,6.22,1.95,11.38,2.8,16.37,2.67.36,4.89.66,7.45,1,.63-4.88,1.21-9.38,1.86-14.48,2.25,5.09,4.25,9.62,6.5,14.73,3.15.2,6.88.35,10.6.71,4.44.43,5.84-1.12,6.47-6.94.62-5.75,1.44-11.45,2.3-18.17.33,5.91.61,10.87.89,15.82.23-.01.46-.02.69-.04.3-1.63.6-3.26,1.16-6.34.58,2.58.86,3.77,1.13,4.96.1-.1.25-.17.29-.3.13-.5.22-1.03.33-1.55.18.06.45.05.52.2.43.97.89,2.86,1.21,2.82,1.45-.19,2.88-.84,4.28-1.49,3.41-1.58,2.85-5.61,3.01-9.15.23-5.18.43-10.37.68-16.32.98,3.61,1.79,6.55,2.64,9.68.19-1.39.37-2.7.65-4.68.36,1.67.59,2.75.9,4.15.9-.9,1.7-1.7,2.67-2.67.14,1.69.27,3.22.4,4.75.15,0,.31,0,.46.01,0-4.32,0-8.63,0-12.95.28,0,.56,0,.84,0,0,4.36,0,8.71,0,13.07.25,0,.5,0,.75,0,0-6.07,0-12.13,0-18.2.24-.01.48-.03.72-.04,0,3.54,0,7.08,0,10.62.21.02.42.03.63.05.16-1.9.32-3.81.48-5.71.13,0,.27,0,.4-.01.16,1.55.31,3.1.47,4.65.09.02.19.04.28.06.15-2.09.3-4.18.45-6.28.36-.13.72-.27,1.08-.4.94,4.59,1.87,9.18,2.63,12.89,0-2.42,0-5.95,0-9.49.23,0,.45-.02.68-.03.14,2.87.29,5.74.45,9.12.48-1.45.85-2.55,1.41-4.25,1.12,2.16,1.99,3.81,2.83,5.42.17-.52.42-1.28.8-2.46.24,1.41.42,2.46.35,2.06,1.72-1.04,3.51-2.13,5.3-3.21.28.5.55,1.01.83,1.51.17-1.41.34-2.82.63-5.18,1.03,3.89,1.83,6.93,2.98,11.3.44-3.19.7-4.99.95-6.79.1,0,.21,0,.31,0,.13,2.93.25,5.87.36,8.33.83-1.35,1.79-2.91,3.06-4.97.48,1.46.8,2.46,1.25,3.83.21-1.59.38-2.87.65-4.94.36,1.69.58,2.7.85,3.98.29-.92.48-1.55.93-3,.22,2.14.37,3.55.63,5.96.42-2.37.66-3.71.9-5.05.27-.03.54-.06.81-.09.21,2.27.42,4.55.76,8.26.3-3.32.48-5.26.66-7.2.12,0,.23,0,.35,0,.12,1.94.25,3.88.46,7.25.4-2.67.61-4,.81-5.33.3-.02.61-.03.91-.05.22,3.41.44,6.82.66,10.22.1.02.21.03.31.05.15-2.59.31-5.18.46-7.77.13,0,.26,0,.4,0,.13,2.64.27,5.29.4,7.93.12,0,.24,0,.36,0,.16-2.93.32-5.87.48-8.8.34-.03.67-.06,1.01-.09.23,3.28.46,6.55.69,9.83.14,0,.28,0,.42-.01,0-4.63,0-9.27,0-13.9.24,0,.48-.01.72-.02,0,3.54,0,7.09,0,10.63.33.01.65.03.98.04,0-3.8,0-7.6,0-11.4.4,0,.8,0,1.2,0,.2,4.84.4,9.67.59,14.51.14,0,.29.01.43.02,0-3.54,0-7.08,0-10.62.27,0,.53-.02.8-.02,0,3.56,0,7.12,0,10.68.32.02.65.03.97.04,0-3.79,0-7.59,0-11.38.4,0,.79,0,1.19,0,.21,4.47.42,8.95.63,13.42.14.01.28.03.42.04,0-3.89,0-7.78,0-11.68.25,0,.5-.01.75-.02.12,3.57.23,7.14.35,10.71.12,0,.24,0,.35.01.16-3.22.31-6.44.47-9.66.33-.03.66-.06.99-.08.23,3.67.47,7.33.7,11l.28.02c.11-2.28.21-4.55.32-6.83.14,0,.28-.02.42-.03.17,1.85.34,3.71.55,6.02.45-1.73.81-3.11,1.17-4.49.21.03.42.06.63.09.19,2.16.38,4.32.58,6.48.11.01.23.02.34.03.12-1.32.24-2.65.47-5.27.42,2.25.6,3.23.81,4.35.5-.53.96-1.03,1.52-1.62,1.75,5.93,4.65,9.46,10.2,8.71.36-6.51.71-13.03,1.07-19.55.11,0,.22-.02.33-.02.15,2.56.3,5.12.42,7.15,1.05-.58,2.15-1.19,3.45-1.91.39,1.95.8,4.04,1.43,7.22.7-2.76,1.11-4.41,1.53-6.06,2.1,3.73,2.8,8.44,7.19,10.21,3.63,1.46,6.72,5.39,10.97,4.3l.75-75.63"/>
  </g>
  <path class="st1" d="M296,11.88v175.01H10.92V11.88h285.07M300,7.88H6.92v183.01h293.07V7.88h0Z"/>
</svg>