<?xml version="1.0" encoding="UTF-8"?>
<svg id="Layer_1" xmlns="http://www.w3.org/2000/svg" version="1.1" viewBox="0 0 1366 412.8">
  <!-- Generator: Adobe Illustrator 29.6.1, SVG Export Plug-In . SVG Version: 2.1.1 Build 9)  -->
  <defs>
    <style>
      .st0 {
        fill: #ff8a3d;
      }
    </style>
  </defs>
  <path class="st0" d="M1301.42,169.42c-20.52-3.84-23.79-14.05-33.6-22.14-1.96,3.59-3.91,7.17-7.17,13.15-2.95-6.9-4.88-11.42-6.69-15.66-6.1,1.56-11.23,2.88-16.14,4.14-.56-4.4-1.26-9.94-1.96-15.49-.51.02-1.02.03-1.53.05-1.67,14.14-3.33,28.27-5,42.38-25.92,1.64-39.5-6.02-47.68-18.88-2.62,1.3-4.78,2.37-7.11,3.52-.98-2.43-1.83-4.57-3.79-9.43-1.09,5.68-1.64,8.55-2.19,11.42-.53-.02-1.05-.05-1.58-.07-.9-4.68-1.8-9.37-2.7-14.06-.99-.06-1.98-.12-2.97-.19-1.68,2.99-3.36,5.97-5.47,9.73-.98-5-1.76-9.02-2.55-13.04-.66.02-1.32.04-1.98.06-.49,4.93-.99,9.86-1.48,14.8-.44-.01-.88-.03-1.32-.04-1.09-7.95-2.19-15.89-3.28-23.84-1.54.06-3.09.12-4.63.18-.73,6.98-1.45,13.97-2.18,20.95-.55,0-1.1-.02-1.65-.03-.55-7.74-1.1-15.48-1.64-23.21-1.17.01-2.33.02-3.5.04,0,8.44,0,16.88,0,25.32-.65-.03-1.3-.06-1.95-.08-.99-9.7-1.98-19.39-2.97-29.09-1.85,0-3.7.01-5.55.02v24.68c-1.51-.03-3.02-.06-4.53-.1v-23.15c-1.24.02-2.48.03-3.72.05v23.03c-.67,0-1.34-.02-2.01-.03-.92-10.49-1.85-20.97-2.77-31.46-1.87,0-3.75,0-5.62,0v24.71c-1.52-.03-3.05-.06-4.57-.09v-23.05c-1.12.02-2.24.03-3.36.05v30.14c-.65,0-1.3.02-1.95.03-1.08-7.1-2.16-14.2-3.24-21.31-1.57.07-3.14.13-4.71.2-.75,6.36-1.49,12.72-2.24,19.07-.56,0-1.11.01-1.67.02-.62-5.73-1.25-11.46-1.87-17.19-.62,0-1.23,0-1.85.01-.72,5.61-1.44,11.22-2.16,16.84-.49-.04-.97-.08-1.45-.11-1.03-7.39-2.06-14.77-3.1-22.16-1.42.03-2.85.07-4.27.1-.95,2.89-1.89,5.78-3.79,11.56-1.01-7.32-1.59-11.52-2.17-15.72-.55,0-1.1,0-1.65,0-.83,4.21-1.65,8.41-3.07,15.61-1.59-8.04-2.57-12.97-3.54-17.9-1.27.07-2.53.14-3.79.21-1.12,2.91-2.24,5.82-4.21,10.95-1.18-5.22-1.88-8.29-2.93-12.92-2.08,3.13-2.99,4.49-4.33,6.49-1.28-2.77-2.28-4.95-3.97-8.62-1.26,4.48-2.05,7.27-3.02,10.71-2.08-2.96-3.6-5.13-5.82-8.3-5.93,4.47-10.41,7.84-14.31,10.78-.5-5.34-1.08-11.7-1.67-18.06-.49,0-.98-.01-1.47-.02-1.17,3.9-2.34,7.81-4.42,14.73-5.38-9.46-9.14-16.06-13.94-24.49-1.34,5.1-2.14,8.16-2.94,11.22-1.3-1.09-2.59-2.18-3.89-3.27-8.36,2.35-16.72,4.7-24.76,6.96.08.22.09.25,0,0h0c-.2-.53-.84-2.29-1.64-4.47-1.81,2.57-2.97,4.22-3.76,5.34-3.93-3.49-7.95-7.07-13.21-11.75-2.64,3.68-4.35,6.07-6.61,9.22-.79-7.33-1.46-13.55-2.12-19.77-1.06.02-2.12.04-3.19.06v20.57c-3.54-8.04-7.91-18-12.29-27.95-1.69.29-3.37.57-5.06.86-.71,4.54-1.41,9.07-2.12,13.61-.44-.04-.89-.08-1.33-.12-.73-3.36-1.46-6.72-2.2-10.07-.63.01-1.25.02-1.88.03-.75,4.13-1.5,8.26-2.24,12.39-.98-.04-1.96-.07-2.94-.11v-23.02c-1.12.03-2.24.06-3.37.09v39.46c-1.17,0-2.34,0-3.51,0v-28.34c-1.3,0-2.61,0-3.91,0,0,9.36,0,18.72,0,28.08-.72,0-1.44-.02-2.17-.03-.6-3.32-1.21-6.65-1.87-10.31-4.57,2.12-8.28,3.84-12.5,5.8-1.41-3.03-2.5-5.37-4.19-8.99-1.28,4.3-2.13,7.14-3.02,10.15-4-6.79-7.75-13.17-12.36-20.99-1.14,12.92-2.07,24.16-3.16,35.39-.74,7.68,1.87,16.39-14.05,19.83-6.53,1.41-13.22,2.83-20,3.24-1.53.09-3.65-4.01-5.68-6.12-.31-.33-1.58-.3-2.41-.43-.5,1.12-.93,2.26-1.54,3.35-.16.28-.88.44-1.35.65-1.26-2.58-2.53-5.17-5.26-10.76-2.63,6.67-4.02,10.2-5.41,13.74-1.07.03-2.14.05-3.21.08-1.3-10.74-2.6-21.49-4.16-34.3-4.03,14.55-7.89,26.92-10.77,39.38-2.92,12.63-9.49,15.99-30.23,15.05-17.4-.79-34.85-1.1-49.56-1.54-10.55-11.09-19.9-20.9-30.4-31.93-3.07,11.06-5.77,20.81-8.71,31.4-11.97-.75-22.36-1.39-34.84-2.17-3.99-10.8-8.12-21.99-13.1-35.48-4.7,3.71-8.04,6.35-14.22,11.23,0-25.05,0-47.71,0-70.36-1.62-.02-3.24-.05-4.85-.07-1.82,11.81-3.64,23.61-5.45,35.42-.8.01-1.59.03-2.38.04-1.6-18.88-3.2-37.75-4.8-56.63-.75,0-1.51,0-2.26,0v26.24c-.95,0-1.89.02-2.84.02-.63-8.75-1.26-17.5-1.89-26.25-.65,0-1.3,0-1.95-.02-.67,9.48-1.34,18.96-2.01,28.44-.38,0-.77.02-1.15.02-1-6.5-2.01-13-3.01-19.5-1.38.06-2.75.12-4.13.18-1.19,3.95-2.38,7.89-4.24,14.1-1.03-7.67-1.74-12.92-2.45-18.17-.66.04-1.32.08-1.98.12-.53,7.12-1.07,14.24-1.6,21.37-1.23.05-2.46.09-3.68.14-2.49-10.49-4.97-20.98-7.45-31.47-.69.03-1.38.05-2.08.08-.69,6.38-1.38,12.76-2.07,19.14-.53,0-1.06,0-1.58,0-.56-7.9-1.12-15.8-1.68-23.7-1.14,0-2.27.01-3.41.02v25.74c-.67-.03-1.35-.06-2.02-.09-.62-1.67-1.23-3.33-1.85-5-1.02.04-2.04.09-3.06.13v30.93c-.72,0-1.43,0-2.14.01-2.15-14.04-4.29-28.09-6.44-42.13-.6.03-1.21.06-1.81.1-1.84,9.02-3.67,18.03-5.51,27.05-1.32.01-2.65.02-3.97.04-1.35-11.51-2.7-23.02-4.04-34.53-.7.02-1.39.04-2.09.05-.61,6.17-1.22,12.33-1.83,18.5-.79-.01-1.59-.03-2.38-.04V19.25c-1.2,0-2.4,0-3.6,0v48.9c-.95.01-1.89.02-2.84.03-2.05-14.67-4.1-29.35-6.16-44.02-.5,0-1,.02-1.49.02-.54,7.65-1.07,15.29-1.61,22.94-.64-.02-1.27-.05-1.91-.07-.57-7.7-1.14-15.39-1.71-23.09-.97,0-1.94,0-2.91,0v49.22c-1.31,0-2.62,0-3.93,0,0-14.12,0-28.25,0-42.37-1.29,0-2.57,0-3.86,0,0,16.29,0,32.58,0,48.88-1.19,0-2.39-.01-3.58-.02V16.94c-1.23,0-2.46-.01-3.68-.01v63.23c-1.35.02-2.69.04-4.03.06-1.6-16.47-3.19-32.93-4.79-49.4-2.32,1.44-2.94,3.07-3.65,4.69-.03.08-.92,0-1.5,0-.61-7.58-1.16-14.51-1.76-22.09h-3.23v36.34c-2.53-4.16-3.57-5.87-3.57-5.86-4.89,18.17-10.06,37.35-15.45,57.37-8.31-4.09-12.35-6.07-17.16-8.44-2.75,27.16-3.36,53.69-21.61,79.19-17.18-4.97-32.31-10.31-47.96-3.7-8.53,3.6-13.83,2.87-19.72-1.76-1.02-.81-4.71-.13-7.02-.49-8.05-1.26-16.03-2.68-25.74-4.32-3.88,1.28-10.34,3.86-17.34,5.64-11.7,2.97-26.52-3.02-29.14-11.19-1.18-3.7-2.66-7.43-4.99-10.89-4.13-6.14-2.79-14.44-17.46-16.79-1.82-.29-1.47-5.86-2.13-8.99-.6.04-1.2.09-1.79.13-.61,5.38-1.22,10.76-1.83,16.14-.54-.02-1.08-.04-1.62-.07-.54-7.63-1.07-15.25-1.61-22.88-.72.03-1.44.05-2.17.08-.68,5.48-1.36,10.95-2.04,16.43-.52-.02-1.04-.03-1.57-.05-.65-6.45-1.3-12.9-1.95-19.35-.66,0-1.31,0-1.96,0-.61,6.5-1.23,13-1.84,19.5-.57,0-1.14,0-1.72,0-.59-7.2-1.19-14.4-1.78-21.61-.68-.03-1.36-.05-2.05-.08-.59,4.17-1.18,8.34-1.78,12.5-1.54,0-3.08,0-4.62,0-2.71-17.25-5.41-34.5-8.53-54.39-.99,5.89-1.54,9.15-2.09,12.42-.59-.02-1.19-.05-1.78-.07-.51-5.77-1.02-11.55-1.53-17.32-.65-.03-1.31-.05-1.96-.08-.85,4.07-1.71,8.14-2.56,12.21-.47-.04-.93-.07-1.4-.11-.54-6.25-1.08-12.5-1.62-18.75-.86.01-1.72.02-2.58.03-.5,4.08-1,8.17-1.5,12.25-.93-.02-1.85-.04-2.78-.06,0-8.75,0-17.49,0-26.24-.91,0-1.82-.02-2.73-.03-.57,6.5-1.15,13-1.72,19.49-.61.01-1.21.03-1.82.04-.65-5.66-1.3-11.33-1.94-16.99-.72.03-1.45.06-2.17.1-.51,6.24-1.02,12.48-1.53,18.72-.65,0-1.31-.02-1.96-.03-.58-6.3-1.17-12.61-1.75-18.91-.64.01-1.27.02-1.91.04-.97,2.24-1.93,4.47-3.7,8.57-.75-7.36-1.29-12.65-1.83-17.94-.74-.04-1.47-.08-2.21-.12-.68,2.57-1.36,5.14-2.04,7.72-.52-.06-1.03-.12-1.55-.17-.6-4.81-1.19-9.61-1.79-14.42-.64,0-1.28-.02-1.92-.02-.66,3.42-1.33,6.84-2.43,12.53-1.8-5.07-2.75-7.72-3.67-10.29-9.66,12.91-1.9,29.75-25.87,38.26-3.74-4.07-7.59-8.26-14.07-15.32v30.38c-2.91-2.43-4.06-3.4-7.6-6.35v24.84c-2.46-2.45-3.6-3.58-6.27-6.25-.65,7.21-1.18,13.03-1.71,18.85-.52-.04-1.05-.09-1.57-.13-.62-1.76-1.24-3.52-2.89-8.21-4.73,14.71-8.52,26.49-12.32,38.28-.68-5.37-1.34-10.75-2.01-16.13-.69.01-1.38.02-2.08.04-.55,4.02-1.1,8.04-1.83,13.33-2.03-3.14-3.18-4.92-4-6.17-3.34,13.71-8.71,27.41-9.43,41.21-.61,11.76-2.13,26.94,8.23,34.52,10.54,7.71,12.39,14.43,14.27,22.68.11.48,1.43.84,2.63,1.51.49-1.69.89-3.18,1.39-4.66.11-.32.5-.65.91-.87.12-.07.75.23,1.15.36.65,4.03,1.3,8.06,2.3,14.34,2.22-4.13,3.23-6,5.06-9.42.76,8.18,1.37,14.63,1.97,21.08.72,0,1.44,0,2.16,0,.7-6.34,1.4-12.69,2.1-19.03.91.01,1.81.02,2.72.03v35.08c1.01,0,2.02,0,3.03,0,.62-3.18,1.24-6.35,1.85-9.53.94.03,1.87.06,2.81.09,0,13.15,0,26.29,0,39.44,1.23,0,2.45-.02,3.68-.03,0-11.46,0-22.91,0-34.37,1.15.02,2.3.04,3.45.05,0,16.21,0,32.43,0,48.64,1.21,0,2.42,0,3.62,0v-51.18c1.35,0,2.71,0,4.06.01,0,14.58,0,29.16,0,43.73,1.19-.02,2.37-.04,3.56-.06,0-13.93,0-27.86,0-41.79,1.19,0,2.38,0,3.56-.01v49.1c1.33,0,2.66-.01,3.99-.02,0-17.69,0-35.39,0-53.08,1.21.01,2.42.02,3.63.03v58.04c1.2,0,2.4.02,3.6.02v-37.44c1.35,0,2.7,0,4.05,0v57.72c1.22-.01,2.45-.03,3.67-.04,0-16.22,0-32.43,0-48.65,1.2,0,2.41,0,3.62,0v55.87c1.23,0,2.46-.02,3.7-.03v-55.77c1.23,0,2.47,0,3.7,0v58.17c1.24,0,2.49-.02,3.73-.03v-58.09c1.23,0,2.46,0,3.69,0v53.59c1.34,0,2.68-.01,4.01-.02,0-20.77,0-41.53,0-62.3,1.22,0,2.44.01,3.66.02,0,20.04,0,40.08,0,60.12,1.22,0,2.45,0,3.67-.01,0-20.92,0-41.85,0-62.78,1.2,0,2.39,0,3.59.01,0,19.36,0,38.72,0,58.08,1.22,0,2.44.01,3.65.02v-60.57c1.38,0,2.76,0,4.14,0,0,18.5,0,37,0,55.5,1.2-.01,2.4-.03,3.6-.04v-39.44c1.16,0,2.32,0,3.47-.01,0,14.14,0,28.28,0,42.42,1.3,0,2.59,0,3.89,0v-30.73c1.3,0,2.61,0,3.91.01,0,11.64,0,23.28,0,34.92,1.11,0,2.21-.01,3.32-.02v-34.83c.63-.04,1.27-.09,1.9-.13,1.13,3.77,2.26,7.55,4.2,13.99,19.28-20.74,9.24-41.3,16.83-60.36v27.83c1.28,0,2.56-.01,3.84-.02v-46.04c1.15.01,2.29.03,3.44.04,0,9.24,0,18.48,0,27.72,1.16,0,2.32,0,3.48.01v-39.85c.85,0,1.71-.01,2.56-.02.53,6.29,1.06,12.58,1.59,18.87,1.2-.03,2.4-.06,3.6-.09v-25.95c2.76,1.45,2.75,2.94,3.21,4.37.33,1.04,1.28,2.01,3.98,6.04-1.44-18.13,6.56-31.5,25.43-39.54,6.48-2.76,22.36,3.05,34.45,5.03,4.9-.59,12.07-1.46,19.24-2.32,4.93-.59,10.86-.29,14.62-1.92,18.15-7.9,25.24-6.8,33.55,4.29,12.07-3.2,24.03-6.37,39.8-10.55,4.92,35.58,9.73,70.28,15,108.41,1.6-6.35,2.37-9.41,3.14-12.48.82.04,1.63.08,2.45.12v48.36c1.17,0,2.34,0,3.51,0v-60.45c1.19,0,2.38,0,3.57.01,0,23.24,0,46.49,0,69.73,1.22,0,2.44.01,3.65.02v-67.55c1.41,0,2.83,0,4.24,0v74.25c1.22,0,2.43-.02,3.65-.03,0-15.48,0-30.96,0-46.44,1.18,0,2.36,0,3.54,0,0,32.54,0,65.08,0,97.63,1.26,0,2.52-.01,3.78-.02,0-34.06,0-68.13,0-102.19,1.26,0,2.52,0,3.78,0v95.2c.53-.02,1.05-.04,1.58-.06,3.92-31.59,7.84-63.18,11.76-94.77.47,0,.95-.01,1.42-.02v37.1c.69,0,1.38,0,2.07.01,2.13-17.95,4.27-35.9,6.4-53.85,1.01.01,2.02.02,3.04.04v76.5c1.24-.01,2.48-.02,3.72-.03,0-26.99,0-53.98,0-80.97,1.25,0,2.51,0,3.76,0v74.24c1.22,0,2.44-.02,3.66-.03,0-20.92,0-41.85,0-62.77,1.22,0,2.43,0,3.65,0,0,26.36,0,52.72,0,79.07,1.24,0,2.48-.01,3.72-.02,0-19.37,0-38.73,0-58.1,1.2,0,2.4,0,3.59,0v49.16c.75,0,1.5-.01,2.24-.02,2.14-27.13,4.28-54.26,6.42-81.38.88,0,1.76.02,2.65.03,0,20.91,0,41.82,0,62.73,1.23,0,2.45,0,3.67,0,0-16.32,0-32.64,0-48.96,1.32,0,2.63.01,3.95.02,0,8.56,0,17.13,0,25.69,1.27-.01,2.55-.02,3.82-.03v-57.99c1.19,0,2.39.01,3.58.02v81.38l2.74.02c.67-9.48,1.35-18.96,2.02-28.43.92,0,1.85,0,2.77.02v32.74c.66,0,1.32-.01,1.98-.02,1.89-11.68,3.77-23.36,5.66-35.04l3.79.12c0,12.38,0,24.76,0,37.14,1.18-.02,2.36-.03,3.54-.05v-60.43c1.23,0,2.45,0,3.68,0v67.46c1.24,0,2.48-.02,3.72-.02v-72.08c1.19,0,2.37,0,3.56,0v49.22c1.32,0,2.63,0,3.95-.01,0-22.46,0-44.92,0-67.38,1.15,0,2.3,0,3.45.01v37.12c.86.02,1.73.04,2.59.07.88-5.65,1.77-11.3,2.65-16.96.49.02.99.04,1.48.06.59,6.37,1.18,12.73,1.76,19.1.66-.01,1.33-.02,2-.03.63-7.91,1.26-15.82,1.9-24.01,4.14,13.89,8.15,27.37,12.16,40.86,2.03-.18,4.06-.37,6.09-.55v-65.19c1.08-.01,2.17-.02,3.25-.03,1.71,12.32,3.41,24.64,5.12,36.96.4-.02.8-.04,1.21-.06,2.73-28.88,5.45-57.75,8.18-86.63.64.04,1.29.08,1.93.12,2.71,9.62,5.42,19.24,8.14,28.86,4.57-2.5,4.48-4.7,5.15-6.81,3.65-11.57,6.08-23.4,11.78-34.58,3.28-6.44,14.65-9.29,24.73-5.53,5.86,2.19,11.35,7.2,12.48,11.42,2.87,10.69,3.18,21.64,4.61,33.23,3.67-5.5,7.38-9.87,9.48-14.53,2.18-4.83,2.8-9.93,4.1-14.91,3.8-14.55,12.81-18.61,37.62-17.79,11.81.39,23.78.34,35.54-.36,16.44-.99,24.08,2.48,25.57,12.94,1.47,10.28,2.77,20.57,4.15,30.86,1.35-.05,2.71-.1,4.06-.15,1.93-10.15,3.86-20.3,6.36-33.44,2.71,5.19,3.92,7.5,5.3,10.16,6.16-2.07,11.3-3.78,14.04-4.71,47.26,10.65,33.1,36.31,39.28,57.35.73-2.42,1.45-4.85,2.18-7.27.82.02,1.63.04,2.45.06v41.98c1.24,0,2.48,0,3.72-.01,0-12.31,0-24.61,0-36.92,1.17.01,2.34.02,3.51.03v62.73c1.22,0,2.45,0,3.67,0v-67.49c1.24,0,2.48,0,3.72.01,0,27.13,0,54.26,0,81.38,1.26,0,2.51,0,3.77,0v-79.01c1.21,0,2.42.01,3.63.02,0,18.57,0,37.15,0,55.72,1.21,0,2.42.01,3.64.02v-58.59c1.35,0,2.7,0,4.05,0v48.87c1.22-.01,2.43-.02,3.65-.03,0-19.37,0-38.73,0-58.1,1.68,0,3.35-.01,5.03-.02v53.76c1.53-.03,3.05-.05,4.58-.08.87-3.41,1.75-6.82,3.11-12.1,1.74,3.97,2.56,5.84,3.38,7.71,1.01-.13,2.01-.26,3.02-.39v-34.86c1.08,0,2.16,0,3.24-.01v62.88c1.35,0,2.69,0,4.04-.01,0-20.78,0-41.56,0-62.34,1.19,0,2.38.02,3.57.03,0,15.46,0,30.93,0,46.4,1.18,0,2.36,0,3.54,0,0-18.05,0-36.1,0-54.15,1.34,0,2.68,0,4.02,0v63.17c1.31,0,2.62-.01,3.93-.02,0-19.98,0-39.96,0-59.93,1.21,0,2.41.01,3.62.02,0,29.28,0,58.56,0,87.85.77,0,1.54,0,2.3.01,2.2-17.81,4.4-35.61,6.6-53.42.7,0,1.39.02,2.09.02v53.42c1.21,0,2.42,0,3.63,0v-70.05c1.33,0,2.67,0,4,0v55.94c1.31,0,2.62-.02,3.93-.02v-64.56c1.22,0,2.43.02,3.65.03v64.68c1.23,0,2.47,0,3.7,0v-74.04c1.86.01,3.71.02,5.57.03v64.47c1.85,0,3.7-.01,5.56-.02v-39.17c1.2,0,2.4.02,3.61.02v37.1h3.65c0-20.24,0-40.48,0-60.72,1.35,0,2.71,0,4.06,0v53.42c1.21-.01,2.42-.02,3.63-.04v-55.78c1.73,0,3.46,0,5.19,0v34.27c1.92-.06,3.83-.13,5.75-.19v-38.58c1.41,0,2.82,0,4.24,0v39.36c1.2-.02,2.4-.04,3.6-.06,0-16.26,0-32.51,0-48.77,1.19,0,2.38,0,3.57-.01v60.63c1.42,0,2.83,0,4.25,0,0-17.71,0-35.42,0-53.12,1.07,0,2.15,0,3.22,0,1.69,10.76,3.37,21.52,5.06,32.28.76,0,1.51,0,2.27,0v-42.35c1.31,0,2.61,0,3.92,0v40.02c1.32,0,2.63,0,3.95,0v-39.24c.5.02,1,.04,1.5.07,2.25,11.38,4.51,22.75,6.76,34.13,1-.05,2.01-.09,3.02-.14v-27.8c.74,0,1.49-.01,2.23-.02.69,8.75,1.38,17.5,2.06,26.26.97,0,1.95,0,2.92,0v-39.86c.8,0,1.61,0,2.41,0,.57,6.71,1.14,13.42,1.7,20.14,1.21.07,2.42.15,3.63.22,1.85-2.45,3.7-4.9,6.17-8.18.78,3.57,1.33,6.06,1.87,8.56,1.05-.03,2.1-.06,3.15-.08v-32.28c1.28.01,2.55.03,3.83.04v25.33c1.06-.02,2.12-.03,3.17-.05v-28.01c3.34,5.39,5.23,8.44,7.12,11.49,1.01-.14,2.02-.27,3.03-.41.92-5.12,1.83-10.23,2.75-15.35.47.03.95.06,1.42.09.5,6.17,1,12.35,1.5,18.52.59.06,1.19.13,1.78.19.93-3.84,1.87-7.68,3.5-14.38,3.61,5.16,5.25,7.49,7.69,10.98,1.01-3.87,1.75-6.71,2.9-11.13,1.79,3.05,2.48,4.23,4.9,8.37.8-8.18,1.29-13.14,1.98-20.14,2.39,6.58,4.04,11.13,5.68,15.67,1.61.12,3.23.23,4.84.35,3.41-5.28,6.81-10.56,9.73-15.09.95,3,2.17,6.88,4.32,13.71,6.43-7.76,10.46-12.62,12.55-15.14,5.77,1.58,11.04,3.02,16.93,4.63.82-3.76,1.46-6.68,1.75-7.99,4.39,2.4,9.43,5.17,16.6,9.09,1.04-6.06,1.62-9.44,1.6-9.38,14.28-4.48,26.21-8.22,35.58-11.16,11.55,11.81,20.6,21.08,29.79,30.48,2.16-3.88,4.08-7.32,7.08-12.7,3.06,7.17,5.17,12.11,7.94,18.6,6.17-22.85,46.66-38.73,87.38-37.76v-2.8c-19.9,2.35-37.84-5.82-54.79-9Z"/>
</svg>